# xmcd
#
# Track frame offsets:
#	150
#	11527
#	25414
#	35063
#	47982
#	60214
#	75916
#	88794
#	102049
#	117208
#	133151
#	144071
#	153450
#	168061
#	179861
#	192451
#
# Disc length: 2762 seconds
#
# Revision: 0
# Processed by: cddbd v1.5.2PL0 Copyright (c) Steve Scherf et al.
# Submitted via: audiograbber 1.83.01
#
DISCID=cc0ac810
DTITLE=Various Artist - Best Country  Platte 2
DYEAR=1989
DGENRE=Country
TTITLE0=Kitty Wells - It Wasn´t God Who Made Honky Tonk Angels
TTITLE1=Marty Robbins - Walking Piece Of Heaven
TTITLE2=Red Steagall - Lone Star Beer And Bob Wills Music
TTITLE3=Diana Trask - Lean It All On Me
TTITLE4=Patsy Cline - Crazy
TTITLE5=Joe Ely - Dallas
TTITLE6=Barbara Mandrell - Midnight Angel
TTITLE7=Narvel Felts - Somebody Hold Me
TTITLE8=Dolly Parton - Apple Jack
TTITLE9=Bill Anderson - Nashville Mirrors
TTITLE10=Roy Head - Angel With A Broken Wing
TTITLE11=Buri Ives - Little Bitty Tear
TTITLE12=Jeanne Pruett - Satin Sheets
TTITLE13=Conway Twitty and Loretta Lynn - After The Fire Is Gone
TTITLE14=Bob Wills - San Antonio Rose
TTITLE15=Roy Clark - Yesterday When I Was Young
EXTD=
EXTT0=
EXTT1=
EXTT2=
EXTT3=
EXTT4=
EXTT5=
EXTT6=
EXTT7=
EXTT8=
EXTT9=
EXTT10=
EXTT11=
EXTT12=
EXTT13=
EXTT14=
EXTT15=
PLAYORDER=
